<svg width="800" height="800" viewBox="0 0 800 800" fill="none" xmlns="http://www.w3.org/2000/svg">
<rect width="800" height="800" rx="10" fill="#F0F8FF"/>
<path d="M440.04 50.5794C435.232 51.4586 426.522 54.9753 422.53 57.7105C412.731 64.3532 404.111 76.9547 401.026 88.9701C398.214 99.8133 400.028 115.248 405.291 126.579C408.285 132.831 419.263 144.651 425.07 147.875C435.595 153.541 449.93 155.494 460.001 152.466C471.252 149.145 483.863 138.985 489.489 128.631C497.745 113.392 498.289 94.0498 490.849 78.1269C487.13 70.312 477.331 59.7619 470.072 55.8545C460.999 50.8725 449.476 48.9188 440.04 50.5794Z" fill="#00416A"/>
<path d="M378.797 159.695C375.803 160.477 372.265 161.551 370.904 162.137C369.543 162.626 351.76 175.227 331.436 190.075L305.527 208.946C298.132 214.332 291.158 220.274 284.667 226.72L267.562 243.705C249.779 261.386 240.161 271.643 238.982 274.183C233.175 286.98 241.522 302.414 254.86 303.587C263.025 304.271 265.838 302.219 293.602 274.574C317.01 251.325 319.913 248.785 339.148 234.816C352.724 224.914 356.94 228.202 350.863 243.867C346.745 254.484 341.506 267.879 335.791 282.389C319.187 324.785 307.937 351.941 300.225 368.353L292.299 385.213C290.109 389.871 288.974 394.954 288.974 400.101C288.974 408.697 290.063 411.628 295.053 417.782C299.227 422.861 304.852 425.304 312.564 425.304C322.091 425.401 328.533 421.201 333.886 411.628C335.61 408.502 337.515 405.473 338.059 404.985C338.695 404.399 347.586 390.918 358.02 374.898C360.218 371.502 362.336 368.259 364.31 365.258C372.601 352.655 375.806 354.074 372.544 368.802C371.574 373.184 370.497 377.99 369.361 383.006C361.377 418.27 361.105 419.247 344.32 468.969C328.805 514.784 327.262 519.766 327.353 525.334C327.535 535.396 333.341 544.969 341.689 548.681C345.59 550.44 356.659 550.44 360.651 548.681C366.639 545.946 371.72 539.792 374.533 531.684C382.154 510.193 438.77 340.121 443.034 325.859C453.015 292.744 475.697 222.8 476.423 222.8C476.877 222.8 485.043 227.294 494.479 232.764C505.788 239.365 515.245 248.716 521.973 259.95L531.315 275.551C542.112 293.525 552.637 310.132 554.724 312.378C562.073 320.096 572.144 320.584 580.128 313.453C586.207 308.08 588.566 299.093 585.935 291.083C584.483 286.492 542.203 216.158 538.664 212.446C536.124 209.808 501.646 188.903 483.591 179.135C471.342 172.59 447.662 165.263 425.342 161.16C410.825 158.621 386.419 157.839 378.797 159.695Z" fill="#00416A"/>
<path d="M227.731 446.501C208.678 449.627 193.072 465.16 188.173 485.674C186.177 493.879 186.812 507.36 189.443 515.37C194.978 531.586 208.497 544.578 224.193 548.583C247.601 554.445 272.189 539.987 280.537 515.37C283.168 507.458 283.803 493.879 281.807 485.771C278.722 472.779 271.554 461.838 261.211 454.414C251.956 447.771 238.891 444.743 227.731 446.501Z" fill="#00416A"/>
<path d="M129.696 677V601.352H103.456V587.4H172.96V601.352H146.848V677H129.696ZM185.207 677V587.4H244.087V601.352H202.487V624.776H240.247V638.216H202.487V663.048H244.087V677H185.207ZM253.816 677L286.584 587.4H306.168L338.808 677H320.504L296.312 607.112L271.992 677H253.816ZM268.28 656.648L272.888 643.208H318.456L322.936 656.648H268.28ZM350.582 677V587.4H371.19L398.582 643.336L425.718 587.4H446.326V677H429.046V616.84L405.366 664.456H391.67L367.862 616.84V677H350.582ZM528.77 678.536C522.199 678.536 516.226 677.213 510.85 674.568C505.474 671.923 501.207 667.955 498.05 662.664C494.893 657.373 493.314 650.632 493.314 642.44V587.4H510.594V642.568C510.594 647.005 511.319 650.76 512.77 653.832C514.221 656.819 516.311 659.037 519.042 660.488C521.858 661.939 525.186 662.664 529.026 662.664C532.951 662.664 536.279 661.939 539.01 660.488C541.826 659.037 543.959 656.819 545.41 653.832C546.861 650.76 547.586 647.005 547.586 642.568V587.4H564.866V642.44C564.866 650.632 563.245 657.373 560.002 662.664C556.759 667.955 552.365 671.923 546.818 674.568C541.357 677.213 535.341 678.536 528.77 678.536ZM581.707 677V587.4H615.243C622.496 587.4 628.512 588.637 633.291 591.112C638.07 593.587 641.611 596.915 643.915 601.096C646.219 605.277 647.371 610.056 647.371 615.432C647.371 620.381 646.262 624.947 644.043 629.128C641.824 633.309 638.326 636.723 633.547 639.368C628.768 641.928 622.667 643.208 615.243 643.208H598.987V677H581.707ZM598.987 629.256H614.219C619.766 629.256 623.734 628.019 626.123 625.544C628.598 622.984 629.835 619.613 629.835 615.432C629.835 610.995 628.598 607.581 626.123 605.192C623.734 602.717 619.766 601.48 614.219 601.48H598.987V629.256Z" fill="#00416A"/>
</svg>
