<svg width="800" height="800" viewBox="0 0 800 800" fill="none" xmlns="http://www.w3.org/2000/svg">
<rect width="800" height="800" rx="10" fill="#010B13"/>
<path d="M450.04 63.5794C445.232 64.4586 436.522 67.9753 432.53 70.7105C422.731 77.3532 414.111 89.9547 411.026 101.97C408.214 112.813 410.028 128.248 415.291 139.579C418.285 145.831 429.263 157.651 435.07 160.875C445.595 166.541 459.93 168.494 470.001 165.466C481.252 162.145 493.863 151.985 499.489 141.631C507.745 126.392 508.289 107.05 500.849 91.1269C497.13 83.312 487.331 72.7619 480.072 68.8545C470.999 63.8725 459.476 61.9188 450.04 63.5794Z" fill="#87CEFA"/>
<path d="M388.797 172.695C385.803 173.477 382.265 174.551 380.904 175.137C379.543 175.626 361.76 188.227 341.436 203.075L315.527 221.946C308.132 227.332 301.158 233.274 294.667 239.72L277.562 256.705C259.779 274.386 250.161 284.643 248.982 287.183C243.175 299.98 251.522 315.414 264.86 316.587C273.026 317.271 275.838 315.219 303.602 287.574C327.01 264.325 329.913 261.785 349.148 247.816C362.724 237.914 366.94 241.202 360.863 256.867C356.745 267.484 351.506 280.879 345.791 295.389C329.188 337.785 317.937 364.941 310.225 381.353L302.299 398.213C300.11 402.871 298.974 407.954 298.974 413.101C298.974 421.697 300.063 424.628 305.053 430.782C309.227 435.861 314.852 438.304 322.564 438.304C332.091 438.401 338.533 434.201 343.886 424.628C345.61 421.502 347.515 418.473 348.06 417.985C348.695 417.399 357.586 403.918 368.02 387.898C370.218 384.502 372.336 381.259 374.31 378.258C382.601 365.655 385.806 367.074 382.544 381.802C381.574 386.184 380.497 390.99 379.362 396.006C371.377 431.27 371.105 432.247 354.32 481.969C338.805 527.784 337.263 532.766 337.353 538.334C337.535 548.396 343.342 557.969 351.689 561.681C355.59 563.44 366.659 563.44 370.651 561.681C376.64 558.946 381.72 552.792 384.533 544.684C392.154 523.193 448.77 353.121 453.035 338.859C463.015 305.744 485.698 235.8 486.423 235.8C486.877 235.8 495.043 240.294 504.479 245.764C515.788 252.365 525.245 261.716 531.973 272.95L541.315 288.551C552.112 306.525 562.637 323.132 564.724 325.378C572.073 333.096 582.144 333.584 590.128 326.453C596.207 321.08 598.566 312.093 595.935 304.083C594.483 299.492 552.203 229.158 548.664 225.446C546.124 222.808 511.646 201.903 493.591 192.135C481.342 185.59 457.662 178.263 435.342 174.16C420.825 171.621 396.419 170.839 388.797 172.695Z" fill="#87CEFA"/>
<path d="M237.731 459.501C218.678 462.627 203.072 478.16 198.173 498.674C196.177 506.879 196.812 520.36 199.443 528.37C204.978 544.586 218.497 557.578 234.193 561.583C257.601 567.445 282.189 552.987 290.537 528.37C293.168 520.458 293.803 506.879 291.807 498.771C288.722 485.779 281.554 474.838 271.211 467.414C261.956 460.771 248.891 457.743 237.731 459.501Z" fill="#87CEFA"/>
<path d="M139.696 690V614.352H113.456V600.4H182.96V614.352H156.848V690H139.696ZM195.207 690V600.4H254.087V614.352H212.487V637.776H250.247V651.216H212.487V676.048H254.087V690H195.207ZM263.816 690L296.584 600.4H316.168L348.808 690H330.504L306.312 620.112L281.992 690H263.816ZM278.28 669.648L282.888 656.208H328.456L332.936 669.648H278.28ZM360.582 690V600.4H381.19L408.582 656.336L435.718 600.4H456.326V690H439.046V629.84L415.366 677.456H401.67L377.862 629.84V690H360.582ZM538.77 691.536C532.199 691.536 526.226 690.213 520.85 687.568C515.474 684.923 511.207 680.955 508.05 675.664C504.893 670.373 503.314 663.632 503.314 655.44V600.4H520.594V655.568C520.594 660.005 521.319 663.76 522.77 666.832C524.221 669.819 526.311 672.037 529.042 673.488C531.858 674.939 535.186 675.664 539.026 675.664C542.951 675.664 546.279 674.939 549.01 673.488C551.826 672.037 553.959 669.819 555.41 666.832C556.861 663.76 557.586 660.005 557.586 655.568V600.4H574.866V655.44C574.866 663.632 573.245 670.373 570.002 675.664C566.759 680.955 562.365 684.923 556.818 687.568C551.357 690.213 545.341 691.536 538.77 691.536ZM591.707 690V600.4H625.243C632.496 600.4 638.512 601.637 643.291 604.112C648.07 606.587 651.611 609.915 653.915 614.096C656.219 618.277 657.371 623.056 657.371 628.432C657.371 633.381 656.262 637.947 654.043 642.128C651.824 646.309 648.326 649.723 643.547 652.368C638.768 654.928 632.667 656.208 625.243 656.208H608.987V690H591.707ZM608.987 642.256H624.219C629.766 642.256 633.734 641.019 636.123 638.544C638.598 635.984 639.835 632.613 639.835 628.432C639.835 623.995 638.598 620.581 636.123 618.192C633.734 615.717 629.766 614.48 624.219 614.48H608.987V642.256Z" fill="#87CEFA"/>
</svg>
